<svg width="98" height="60" viewBox="0 0 98 60" fill="none" xmlns="http://www.w3.org/2000/svg">
<g clip-path="url(#clip0_146_4808)">
<path d="M10.2229 0L0 27.7161H4.52649L7.20439 20.2728H18.6719L21.3498 27.7161H25.8763L15.6547 0H10.2229ZM8.75163 16.0352L12.9388 4.43447L17.1259 16.0352H8.75163Z" fill="white"/>
<path d="M39.8812 28.1912C45.4257 28.1912 49.4622 23.4797 49.4622 16.828C49.4622 10.1763 45.351 5.46484 39.9179 5.46484C36.7209 5.46484 34.2798 7.08234 32.7604 9.47111C32.6262 6.98958 30.6725 5.01758 28.2744 5.01758H22.8971C22.8971 7.62616 24.9115 9.74048 27.397 9.74048H28.377L28.3542 59.5247H32.654V24.0731C34.1633 26.5279 36.6374 28.1912 39.8825 28.1912H39.8812ZM38.9759 9.74048C42.5971 9.74048 45.1623 12.6705 45.1623 16.828C45.1623 20.9855 42.5591 23.9155 38.9759 23.9155C35.3927 23.9155 32.6009 21.0261 32.6009 16.828C32.6009 12.6299 35.3547 9.74048 38.9759 9.74048Z" fill="white"/>
<path d="M62.2415 28.1912C66.6553 28.1912 70.6158 25.8952 72.2377 21.0249H67.8239C66.8426 23.1633 64.7687 24.2713 62.2794 24.2713C58.8089 24.2713 56.131 22.0541 55.7917 18.0554H72.653C73.0683 10.8891 68.8432 5.46484 62.1667 5.46484C55.9044 5.46484 51.4539 10.2957 51.4539 16.8674C51.4539 23.4391 55.9424 28.1912 62.2427 28.1912H62.2415ZM62.1655 9.34405C65.2967 9.34405 67.4466 11.4418 68.0873 14.4126H56.0158C56.7324 11.4825 58.9203 9.34405 62.1642 9.34405H62.1655Z" fill="white"/>
<path d="M71.7767 27.7161H76.9072L81.735 19.9158L86.7515 27.7161H91.8452L84.4509 16.5906L91.4679 5.93896H86.3375L81.8857 13.2247L77.2845 5.93896H72.192L79.2078 16.5105L71.7767 27.7161Z" fill="white"/>
<path d="M8.63892 59.5237H12.9008V47.7247H22.4475V43.449H12.9008V36.0845H25.8775V31.8076H8.63892V59.5237Z" fill="white"/>
<path d="M45.9145 37.2725C39.9927 37.2725 35.1636 42.0627 35.1636 48.6356C35.1636 55.2085 39.9167 59.9988 45.9145 59.9988C51.9122 59.9988 56.6653 55.1679 56.6653 48.6356C56.6653 42.1034 51.8742 37.2725 45.9145 37.2725ZM45.9145 55.7231C42.2933 55.7231 39.4634 52.8338 39.4634 48.6356C39.4634 44.4375 42.33 41.5481 45.9145 41.5481C49.4989 41.5481 52.3655 44.4388 52.3655 48.6356C52.3655 52.8325 49.5369 55.7231 45.9145 55.7231Z" fill="white"/>
<path d="M73.1138 36.8276H67.7365C65.7942 36.8276 64.1444 38.1211 63.5139 39.9318V36.8276H59.2507V59.5235H63.5139V41.5505H68.6139C71.0994 41.5505 73.1138 39.4362 73.1138 36.8276Z" fill="white"/>
<path d="M92.6226 36.8275C91.6224 36.8275 90.6968 37.1693 89.9498 37.7475C89.7687 37.8898 89.599 38.0448 89.4395 38.2087C88.7849 38.8999 88.3291 39.8033 88.1784 40.8109C88.1556 40.9621 88.1417 41.1159 88.1328 41.2722C86.6135 38.8834 84.1723 37.2697 80.9766 37.2697C75.5435 37.2697 71.4336 41.9812 71.4336 48.6316C71.4336 55.282 75.4701 59.9973 81.0133 59.9973C84.2584 59.9973 86.7477 58.3735 88.2582 55.8767V59.5221H92.5188V41.5454H93.5026C94.7421 41.5454 95.8678 41.0193 96.6832 40.1629C97.4948 39.3078 98 38.1287 98 36.8237H92.6226V36.8275ZM81.9211 55.7217C78.3379 55.7217 75.7347 52.8323 75.7347 48.6342C75.7347 44.436 78.2999 41.5466 81.9211 41.5466C85.5423 41.5466 88.2949 44.478 88.2949 48.6342C88.2949 52.7904 85.5423 55.7217 81.9211 55.7217Z" fill="white"/>
</g>
<defs>
<clipPath id="clip0_146_4808">
<rect width="98" height="60" fill="white"/>
</clipPath>
</defs>
</svg>
